# xmcd
#
# Track frame offsets:
#	150
#	13293
#	25697
#	38700
#	49860
#	63239
#
# Disc length: 876 seconds
#
# Revision: 1
# Processed by: cddbd v1.5.1PL0 Copyright (c) Steve Scherf et al.
# Submitted via: audiograbber 1.83.01
#
DISCID=45036a06
DTITLE=Shadow - Gegensätze
DYEAR=1900
DGENRE=
TTITLE0=Mehr oder weniger
TTITLE1=Metersichtweisen
TTITLE2=Krankhaft standhaft
TTITLE3=Ballaststoff
TTITLE4=Einzige Perspektive
TTITLE5=Outro
EXTD=
EXTT0=
EXTT1=
EXTT2=
EXTT3=
EXTT4=
EXTT5=
PLAYORDER=
